/* XPM */
static char * start_linux_xpm[] = {
"50 20 139 2",
"  	c None",
". 	c #FEFEFE",
"+ 	c #FAFAFA",
"@ 	c #F9F7F6",
"# 	c #F7F4F1",
"$ 	c #F5F0ED",
"% 	c #F2EDE8",
"& 	c #F0EAE5",
"* 	c #242B35",
"= 	c #71757A",
"- 	c #2B323B",
"; 	c #656970",
"> 	c #272E37",
", 	c #222933",
"' 	c #B5B7B9",
") 	c #6C7176",
"! 	c #262C36",
"~ 	c #333942",
"{ 	c #5C6168",
"] 	c #878A8F",
"^ 	c #212832",
"/ 	c #383E47",
"( 	c #B9BABC",
"_ 	c #ABADAF",
": 	c #262D37",
"< 	c #454B53",
"[ 	c #EDE6E1",
"} 	c #AEAFB1",
"| 	c #94979A",
"1 	c #898C90",
"2 	c #B3B5B6",
"3 	c #484D55",
"4 	c #454A52",
"5 	c #474D55",
"6 	c #D6D3D1",
"7 	c #7F8287",
"8 	c #5F636A",
"9 	c #2E343E",
"0 	c #A5A6A9",
"a 	c #535860",
"b 	c #ADAFB1",
"c 	c #293039",
"d 	c #494F57",
"e 	c #EBE3DD",
"f 	c #84878B",
"g 	c #8E9195",
"h 	c #A8AAAC",
"i 	c #464B53",
"j 	c #8A8C90",
"k 	c #696D73",
"l 	c #999B9E",
"m 	c #9EA0A3",
"n 	c #393F47",
"o 	c #51565D",
"p 	c #65696F",
"q 	c #83868A",
"r 	c #2C333C",
"s 	c #4E535A",
"t 	c #E9E1DA",
"u 	c #5E6269",
"v 	c #2A313A",
"w 	c #686C72",
"x 	c #C3C3C3",
"y 	c #63676D",
"z 	c #282E38",
"A 	c #D0CBC8",
"B 	c #232A34",
"C 	c #2E343D",
"D 	c #BBBCBD",
"E 	c #A3A5A7",
"F 	c #73767B",
"G 	c #72757B",
"H 	c #555960",
"I 	c #E7DED7",
"J 	c #3A4048",
"K 	c #4B5057",
"L 	c #444A51",
"M 	c #41474F",
"N 	c #C1C1C1",
"O 	c #3F454D",
"P 	c #474C54",
"Q 	c #666A70",
"R 	c #7C7F83",
"S 	c #A6A7A9",
"T 	c #4F545B",
"U 	c #363D45",
"V 	c #96989A",
"W 	c #909295",
"X 	c #939598",
"Y 	c #282F38",
"Z 	c #6B6E74",
"` 	c #E4DAD3",
" .	c #6B6F74",
"..	c #BBBCBC",
"+.	c #242B34",
"@.	c #686C71",
"#.	c #2D333D",
"$.	c #484E55",
"%.	c #292F39",
"&.	c #2F363F",
"*.	c #555A60",
"=.	c #73777C",
"-.	c #BCBABA",
";.	c #8D8F93",
">.	c #5B5F66",
",.	c #A1A2A4",
"'.	c #E1D7CF",
").	c #97999B",
"!.	c #575C63",
"~.	c #84868A",
"{.	c #9D9EA0",
"].	c #898B8E",
"^.	c #7D8084",
"/.	c #2A303A",
"(.	c #4A4F57",
"_.	c #272E38",
":.	c #4D525A",
"<.	c #87898D",
"[.	c #5B6066",
"}.	c #A4A5A7",
"|.	c #40464E",
"1.	c #DFD3CB",
"2.	c #777A7E",
"3.	c #3B4149",
"4.	c #A5A6A8",
"5.	c #C2BDBB",
"6.	c #3D424B",
"7.	c #76797E",
"8.	c #252C35",
"9.	c #818488",
"0.	c #5C6167",
"a.	c #686B71",
"b.	c #787C80",
"c.	c #DCCFC6",
"d.	c #DACDC4",
"e.	c #D7C9BF",
"f.	c #D4C6BC",
"g.	c #D1C4B8",
"h.	c #CFC1B5",
". . . . . . . . . . . . . . . . . . . . . . . . . . . . . . . . . . . . . . . . . . . . . . . . . . ",
"+ + + + + + + + + + + + + + + + + + + + + + + + + + + + + + + + + + + + + + + + + + + + + + + + + + ",
"@ @ @ @ @ @ @ @ @ @ @ @ @ @ @ @ @ @ @ @ @ @ @ @ @ @ @ @ @ @ @ @ @ @ @ @ @ @ @ @ @ @ @ @ @ @ @ @ @ @ ",
"# # # # # # # # # # # # # # # # # # # # # # # # # # # # # # # # # # # # # # # # # # # # # # # # # # ",
"$ $ $ $ $ $ $ $ $ $ $ $ $ $ $ $ $ $ $ $ $ $ $ $ $ $ $ $ $ $ $ $ $ $ $ $ $ $ $ $ $ $ $ $ $ $ $ $ $ $ ",
"% % % % % % % % % % % % % % % % % % % % % % % % % % % % % % % % % % % % % % % % % % % % % % % % % % ",
"& & & & & & & & * = & & & & & - ; & > , ' & & & ) ! & ~ { & & & & ] ^ & / , ( & & _ : < & & & & & & ",
"[ [ [ [ [ [ [ } ^ | [ [ [ [ [ ^ 1 2 ^ ^ 3 [ [ [ 4 5 6 ^ 7 [ [ [ [ 8 9 [ 0 ^ a [ b c d [ [ [ [ [ [ [ ",
"e e e e e e e f ^ e e e e e g ^ h 1 ^ i ^ j e e * k l ^ m e e e e n o e e p ^ q r s e e e e e e e e ",
"t t t t t t t u v t t t t t w * x y z A B C D E ^ 1 F ^ t t t t t ^ G t t t ~ ^ H t t t t t t t t t ",
"I I I I I I I J K I I I I I L M N O P I Q ^ y R ^ S T U I I I I V ^ W I I X Y ^ Z I I I I I I I I I ",
"` ` ` ` ` ` ` ,  .` ` ` ` ` : y ..+.@.` ` #., $.%.` &.*.` ` ` ` =.^ -.` ;.* >.$., ,.` ` ` ` ` ` ` ` ",
"'.'.'.'.'.'.).^ / 3 3 3 3 !.^ ~.{.^ ].'.'.^.^ ^ 3 '.%./.(.(.(.(._.:.'.<.B [.'.}.B |.'.'.'.'.'.'.'.'.",
"1.1.1.1.1.1.2.^ ^ ^ ^ ^ ^ 3.^ 4.R ^ 5.1.1.1.6.^ k 1.7.8.^ ^ ^ , T 1.9., 0.1.1.1.a.^ b.1.1.1.1.1.1.1.",
"c.c.c.c.c.c.c.c.c.c.c.c.c.c.c.c.c.c.c.c.c.c.c.c.c.c.c.c.c.c.c.c.c.c.c.c.c.c.c.c.c.c.c.c.c.c.c.c.c.c.",
"d.d.d.d.d.d.d.d.d.d.d.d.d.d.d.d.d.d.d.d.d.d.d.d.d.d.d.d.d.d.d.d.d.d.d.d.d.d.d.d.d.d.d.d.d.d.d.d.d.d.",
"e.e.e.e.e.e.e.e.e.e.e.e.e.e.e.e.e.e.e.e.e.e.e.e.e.e.e.e.e.e.e.e.e.e.e.e.e.e.e.e.e.e.e.e.e.e.e.e.e.e.",
"f.f.f.f.f.f.f.f.f.f.f.f.f.f.f.f.f.f.f.f.f.f.f.f.f.f.f.f.f.f.f.f.f.f.f.f.f.f.f.f.f.f.f.f.f.f.f.f.f.f.",
"g.g.g.g.g.g.g.g.g.g.g.g.g.g.g.g.g.g.g.g.g.g.g.g.g.g.g.g.g.g.g.g.g.g.g.g.g.g.g.g.g.g.g.g.g.g.g.g.g.g.",
"h.h.h.h.h.h.h.h.h.h.h.h.h.h.h.h.h.h.h.h.h.h.h.h.h.h.h.h.h.h.h.h.h.h.h.h.h.h.h.h.h.h.h.h.h.h.h.h.h.h."};
