/* XPM */
static char * start_linux_small_xpm[] = {
"50 20 108 2",
"  	c None",
". 	c #FEFEFE",
"+ 	c #FAFAFA",
"@ 	c #F9F7F6",
"# 	c #F7F4F1",
"$ 	c #F5F0ED",
"% 	c #F2EDE8",
"& 	c #F0EAE5",
"* 	c #EDE6E1",
"= 	c #8D9094",
"- 	c #353B44",
"; 	c #96989C",
"> 	c #2D343D",
", 	c #8F9296",
"' 	c #212832",
") 	c #787C81",
"! 	c #797D82",
"~ 	c #303640",
"{ 	c #878A8E",
"] 	c #232A33",
"^ 	c #7D8085",
"/ 	c #51565E",
"( 	c #3F454D",
"_ 	c #EBE3DD",
": 	c #61666C",
"< 	c #5C6067",
"[ 	c #696D73",
"} 	c #52575E",
"| 	c #64686E",
"1 	c #282F38",
"2 	c #242B35",
"3 	c #ADAEB0",
"4 	c #8D9093",
"5 	c #30363F",
"6 	c #656A70",
"7 	c #575C63",
"8 	c #939699",
"9 	c #75797E",
"0 	c #272D37",
"a 	c #AFB1B2",
"b 	c #4A5057",
"c 	c #4C5259",
"d 	c #E9E1DA",
"e 	c #393F48",
"f 	c #818488",
"g 	c #41474F",
"h 	c #767A7F",
"i 	c #3C424A",
"j 	c #76797E",
"k 	c #363C45",
"l 	c #555960",
"m 	c #7C7F84",
"n 	c #696D72",
"o 	c #4B5058",
"p 	c #474C54",
"q 	c #262C36",
"r 	c #5E6369",
"s 	c #E7DED7",
"t 	c #A2A3A5",
"u 	c #232A34",
"v 	c #8E9093",
"w 	c #9B9D9F",
"x 	c #929497",
"y 	c #75787D",
"z 	c #3D434B",
"A 	c #6C7075",
"B 	c #9EA0A2",
"C 	c #41464E",
"D 	c #6E7277",
"E 	c #A4A6A7",
"F 	c #343A43",
"G 	c #7B7F83",
"H 	c #E4DAD3",
"I 	c #8F9295",
"J 	c #787B7F",
"K 	c #86888C",
"L 	c #8C8E91",
"M 	c #565B61",
"N 	c #293039",
"O 	c #222933",
"P 	c #7A7D81",
"Q 	c #73777C",
"R 	c #96989B",
"S 	c #2B323B",
"T 	c #808387",
"U 	c #767A7E",
"V 	c #A7A8AA",
"W 	c #E1D7CF",
"X 	c #727579",
"Y 	c #63676D",
"Z 	c #40454D",
"` 	c #6D7176",
" .	c #434850",
"..	c #DFD5CE",
"+.	c #2A313A",
"@.	c #40464E",
"#.	c #272E38",
"$.	c #73767B",
"%.	c #85878B",
"&.	c #292F39",
"*.	c #8D8F92",
"=.	c #DFD3CB",
"-.	c #DCCFC6",
";.	c #DACDC4",
">.	c #D7C9BF",
",.	c #D4C6BC",
"'.	c #D1C4B8",
").	c #CFC1B5",
". . . . . . . . . . . . . . . . . . . . . . . . . . . . . . . . . . . . . . . . . . . . . . . . . . ",
"+ + + + + + + + + + + + + + + + + + + + + + + + + + + + + + + + + + + + + + + + + + + + + + + + + + ",
"@ @ @ @ @ @ @ @ @ @ @ @ @ @ @ @ @ @ @ @ @ @ @ @ @ @ @ @ @ @ @ @ @ @ @ @ @ @ @ @ @ @ @ @ @ @ @ @ @ @ ",
"# # # # # # # # # # # # # # # # # # # # # # # # # # # # # # # # # # # # # # # # # # # # # # # # # # ",
"$ $ $ $ $ $ $ $ $ $ $ $ $ $ $ $ $ $ $ $ $ $ $ $ $ $ $ $ $ $ $ $ $ $ $ $ $ $ $ $ $ $ $ $ $ $ $ $ $ $ ",
"% % % % % % % % % % % % % % % % % % % % % % % % % % % % % % % % % % % % % % % % % % % % % % % % % % ",
"& & & & & & & & & & & & & & & & & & & & & & & & & & & & & & & & & & & & & & & & & & & & & & & & & & ",
"* * * * * * * * * * * = - * * * * ; > , ' ) * * * ' ! ~ * * * * ' { ] ^ * * / ( * * * * * * * * * * ",
"_ _ _ _ _ _ _ _ _ _ _ : < _ _ _ _ [ } | 1 2 3 _ 4 5 6 7 _ _ _ 8 1 _ 9 0 a b c _ _ _ _ _ _ _ _ _ _ _ ",
"d d d d d d d d d d d e f d d d d g h i j k g d | l i m d d d n o d d p q r d d d d d d d d d d d d ",
"s s s s s s s s s s s ' t s s s s u v ' w x ' y z A ' B s s s C D s E F 2 G s s s s s s s s s s s s ",
"H H H H H H H H H H I ' j J J J K u L 2 H H M N O J ' D P P Q O w R S T U q V H H H H H H H H H H H ",
"W W W W W W W W W W X ' ' ' ' ' Y Z `  .W W ..+.2 W @.' ' ' #.$.%.&.*.W W C ( W W W W W W W W W W W ",
"=.=.=.=.=.=.=.=.=.=.=.=.=.=.=.=.=.=.=.=.=.=.=.=.=.=.=.=.=.=.=.=.=.=.=.=.=.=.=.=.=.=.=.=.=.=.=.=.=.=.",
"-.-.-.-.-.-.-.-.-.-.-.-.-.-.-.-.-.-.-.-.-.-.-.-.-.-.-.-.-.-.-.-.-.-.-.-.-.-.-.-.-.-.-.-.-.-.-.-.-.-.",
";.;.;.;.;.;.;.;.;.;.;.;.;.;.;.;.;.;.;.;.;.;.;.;.;.;.;.;.;.;.;.;.;.;.;.;.;.;.;.;.;.;.;.;.;.;.;.;.;.;.",
">.>.>.>.>.>.>.>.>.>.>.>.>.>.>.>.>.>.>.>.>.>.>.>.>.>.>.>.>.>.>.>.>.>.>.>.>.>.>.>.>.>.>.>.>.>.>.>.>.>.",
",.,.,.,.,.,.,.,.,.,.,.,.,.,.,.,.,.,.,.,.,.,.,.,.,.,.,.,.,.,.,.,.,.,.,.,.,.,.,.,.,.,.,.,.,.,.,.,.,.,.",
"'.'.'.'.'.'.'.'.'.'.'.'.'.'.'.'.'.'.'.'.'.'.'.'.'.'.'.'.'.'.'.'.'.'.'.'.'.'.'.'.'.'.'.'.'.'.'.'.'.'.",
").).).).).).).).).).).).).).).).).).).).).).).).).).).).).).).).).).).).).).).).).).).).).).).).).)."};
