/* XPM */
static char * icewmblanko2_xpm[] = {
"50 20 156 2",
"  	c None",
". 	c #FEFEFE",
"+ 	c #FDFDFD",
"@ 	c #FBFBFB",
"# 	c #FAFAFA",
"$ 	c #F6F6F6",
"% 	c #F0F0F0",
"& 	c #EBEBEB",
"* 	c #EAEAEA",
"= 	c #E1E1E1",
"- 	c #E2E2E2",
"; 	c #DBDBDB",
"> 	c #D5D6D6",
", 	c #242B35",
"' 	c #71757A",
") 	c #DADADA",
"! 	c #2B323B",
"~ 	c #656970",
"{ 	c #D8D8D8",
"] 	c #272E37",
"^ 	c #222933",
"/ 	c #B5B7B9",
"( 	c #6C7176",
"_ 	c #262C36",
": 	c #D7D7D7",
"< 	c #333942",
"[ 	c #5C6168",
"} 	c #878A8F",
"| 	c #212832",
"1 	c #BABBBD",
"2 	c #383E47",
"3 	c #B9BABC",
"4 	c #ABADAF",
"5 	c #262D37",
"6 	c #454B53",
"7 	c #CCCCCD",
"8 	c #D5D5D5",
"9 	c #AEAFB1",
"0 	c #94979A",
"a 	c #898C90",
"b 	c #B3B5B6",
"c 	c #484D55",
"d 	c #D4D4D4",
"e 	c #454A52",
"f 	c #474D55",
"g 	c #C2C3C4",
"h 	c #7F8287",
"i 	c #5F636A",
"j 	c #2E343E",
"k 	c #A5A6A9",
"l 	c #535860",
"m 	c #ADAFB1",
"n 	c #293039",
"o 	c #494F57",
"p 	c #CACACB",
"q 	c #D6D6D6",
"r 	c #CDCDCD",
"s 	c #84878B",
"t 	c #B3B4B5",
"u 	c #8E9195",
"v 	c #A8AAAC",
"w 	c #464B53",
"x 	c #8A8C90",
"y 	c #C8C8C8",
"z 	c #696D73",
"A 	c #999B9E",
"B 	c #9EA0A3",
"C 	c #393F47",
"D 	c #51565D",
"E 	c #65696F",
"F 	c #83868A",
"G 	c #2C333C",
"H 	c #4E535A",
"I 	c #C5C5C6",
"J 	c #5E6269",
"K 	c #2A313A",
"L 	c #C7C7C7",
"M 	c #686C72",
"N 	c #C3C3C3",
"O 	c #63676D",
"P 	c #282E38",
"Q 	c #ABACAE",
"R 	c #232A34",
"S 	c #2E343D",
"T 	c #BBBCBD",
"U 	c #A3A5A7",
"V 	c #73767B",
"W 	c #BCBDBE",
"X 	c #BDBDBE",
"Y 	c #72757B",
"Z 	c #BDBEBE",
"` 	c #555960",
" .	c #C2C2C2",
"..	c #C1C1C1",
"+.	c #3A4048",
"@.	c #4B5057",
"#.	c #444A51",
"$.	c #41474F",
"%.	c #3F454D",
"&.	c #474C54",
"*.	c #666A70",
"=.	c #7C7F83",
"-.	c #A6A7A9",
";.	c #4F545B",
">.	c #363D45",
",.	c #96989A",
"'.	c #909295",
").	c #939598",
"!.	c #282F38",
"~.	c #6B6E74",
"{.	c #C0C0C0",
"].	c #B7B8B8",
"^.	c #6B6F74",
"/.	c #BEBEBE",
"(.	c #BBBCBC",
"_.	c #242B34",
":.	c #686C71",
"<.	c #B5B5B6",
"[.	c #2D333D",
"}.	c #484E55",
"|.	c #292F39",
"1.	c #2F363F",
"2.	c #555A60",
"3.	c #73777C",
"4.	c #B2B3B4",
"5.	c #8D8F93",
"6.	c #5B5F66",
"7.	c #A1A2A4",
"8.	c #BFBFBF",
"9.	c #97999B",
"0.	c #575C63",
"a.	c #84868A",
"b.	c #9D9EA0",
"c.	c #898B8E",
"d.	c #7D8084",
"e.	c #2A303A",
"f.	c #4A4F57",
"g.	c #272E38",
"h.	c #4D525A",
"i.	c #87898D",
"j.	c #5B6066",
"k.	c #BDBDBD",
"l.	c #A4A5A7",
"m.	c #40464E",
"n.	c #777A7E",
"o.	c #3B4149",
"p.	c #A5A6A8",
"q.	c #AAABAD",
"r.	c #3D424B",
"s.	c #76797E",
"t.	c #252C35",
"u.	c #B3B4B4",
"v.	c #818488",
"w.	c #5C6167",
"x.	c #686B71",
"y.	c #787C80",
". . . . . . . . . . . . . . + + + + + + + + + + + + . . . . . . . . . . . . . . . . . . + + + + + + ",
"@ @ @ @ # # # # # # # # @ @ @ @ @ @ @ @ @ @ @ @ @ @ @ @ @ @ @ @ @ @ @ @ @ @ @ @ @ @ @ @ @ @ @ @ @ @ ",
"$ $ $ $ $ $ $ $ $ $ $ $ $ $ $ $ $ $ $ $ $ $ $ $ $ $ $ $ $ $ $ $ $ $ $ $ $ $ $ $ $ $ $ $ $ $ $ $ $ $ ",
"% % % % % % % % % % % % % % % % % % % % % % % % % % % % % % % % % % % % % % % % % % % % % % % % % % ",
"& & & & & & & & & * * * * * * * * & & & & & & & & & & & & & & & & & & & & & & & & & & & * * * * * * ",
"= = = = = = = = = = = = = = = = = = = = = = = = = = = = = = = = = = = = - - - - - - - - - = = = = = ",
"; ; ; ; ; ; ; > , ' ; ; ; ; ) ! ~ { ] ^ / ; ; ; ( _ : < [ ; ; ; ; } | 1 2 ^ 3 ; ; 4 5 6 7 ; ; ; ; ; ",
"8 8 8 8 8 8 8 9 | 0 8 8 8 8 3 | a b | | c d 8 8 e f g | h 8 8 8 8 i j 8 k | l 8 m n o p 8 8 8 8 q q ",
"r r r r r r r s | t r r r r u | v a | w | x r y , z A | B r r r r C D r r E | F G H I r r r r r r r ",
"y y y y y y y J K L y y y y M , N O P Q R S T U | a V | W y y y X | Y L L Z < | `  .L L L L L L L L ",
"..............+.@...........#.$...%.&...*.| O =.| -.;.>.........,.| '.....).!.| ~.{.{.{.{.{.{.{.{.{.",
"{.{.{.{.{.{.].^ ^.{.{.{.../.5 O (._.:.{.<.[.^ }.|./.1.2.{.{.{.{.3.| 4...5., 6.}.^ 7.{.{.8.8.8.8.8.8.",
"8.8.8.8.8.8.9.| 2 c c c c 0.| a.b.| c.8.8.d.| | c 8.|.e.f.f.f.f.g.h.{.i.R j.k.l.R m.k.8.8./././././.",
"{.{.{.{.{.{.n.| | | | | | o.| p.=.| q.{.{./.r.| z {.s.t.| | | ^ ;.u.v.^ w./.{.{.x.| y.{.8.8.8.8.8.8.",
"{.{.{.{.{.{.{.{.{.{.{.{.{.{.{.{.{.{.{.{.{.{.{.{.{.{.{.{.{.{.{.{.{.{.{.{.{.{.{.{.{.{.{.{.{.{.{.{.{.{.",
"8.8.8.8.8.8.8.8.8.8.8.8.8.8.8.8.8.8.8./././././././.8.8.8.8.8.8.8.8.8.8.8.8.8.8.8.8.8.8.8.8.8.8.8.8.",
"/././././././././././.k.k.k.k.k.k.k.k.k././././././././././././././././.k.k.k.k.k.k.k.k.k./././././.",
"{.{.{.{.{.{.{.{.8.8.8././././././././././././.8.8.8.8.8.{.{.{.{.{.8.8.8./././././././././.8.8.8.{.{.",
"........{.{.{.{.{.{.{.8.8.8.8.8.8.8.8.8.8.8.{.{.{.{.{.{.{.{.{.{.{.{.{.{.8.8.8.8.8.8.{.{.{.{.{.......",
"{.{.{.{.{.{.{.{.{.{.{.{.{.{.{.{.{.{.{.{.{.{.{.{.{.{.{.{.{.{.{.{.{.{.{.{.{.{.{.{.{.{.{.{.{.{........."};
