/* XPM */
static char * icewm_xpm[] = {
"50 20 123 2",
"  	c None",
". 	c #FEFEFE",
"+ 	c #FDFDFD",
"@ 	c #FBFBFB",
"# 	c #FAFAFA",
"$ 	c #F6F6F6",
"% 	c #F0F0F0",
"& 	c #EBEBEB",
"* 	c #EAEAEA",
"= 	c #E1E1E1",
"- 	c #E2E2E2",
"; 	c #DBDBDB",
"> 	c #D5D5D5",
", 	c #8D9094",
"' 	c #353B44",
") 	c #96989C",
"! 	c #2D343D",
"~ 	c #8F9296",
"{ 	c #212832",
"] 	c #787C81",
"^ 	c #BABBBD",
"/ 	c #797D82",
"( 	c #303640",
"_ 	c #C2C3C4",
": 	c #878A8E",
"< 	c #232A33",
"[ 	c #7D8085",
"} 	c #CDCECE",
"| 	c #51565E",
"1 	c #3F454D",
"2 	c #C0C1C2",
"3 	c #D6D6D6",
"4 	c #CDCDCD",
"5 	c #61666C",
"6 	c #5C6067",
"7 	c #696D73",
"8 	c #52575E",
"9 	c #64686E",
"0 	c #282F38",
"a 	c #242B35",
"b 	c #ADAEB0",
"c 	c #8D9093",
"d 	c #30363F",
"e 	c #656A70",
"f 	c #575C63",
"g 	c #939699",
"h 	c #CACBCB",
"i 	c #75797E",
"j 	c #272D37",
"k 	c #AFB1B2",
"l 	c #4A5057",
"m 	c #4C5259",
"n 	c #C2C3C3",
"o 	c #C8C8C8",
"p 	c #393F48",
"q 	c #818488",
"r 	c #C7C7C7",
"s 	c #41474F",
"t 	c #767A7F",
"u 	c #3C424A",
"v 	c #76797E",
"w 	c #363C45",
"x 	c #C4C4C4",
"y 	c #555960",
"z 	c #7C7F84",
"A 	c #696D72",
"B 	c #4B5058",
"C 	c #C5C5C5",
"D 	c #474C54",
"E 	c #262C36",
"F 	c #5E6369",
"G 	c #C3C3C3",
"H 	c #C1C1C1",
"I 	c #B5B5B6",
"J 	c #A2A3A5",
"K 	c #BABABA",
"L 	c #232A34",
"M 	c #8E9093",
"N 	c #9B9D9F",
"O 	c #929497",
"P 	c #75787D",
"Q 	c #3D434B",
"R 	c #6C7075",
"S 	c #9EA0A2",
"T 	c #41464E",
"U 	c #6E7277",
"V 	c #A4A6A7",
"W 	c #343A43",
"X 	c #7B7F83",
"Y 	c #C0C0C0",
"Z 	c #8F9295",
"` 	c #787B7F",
" .	c #86888C",
"..	c #8C8E91",
"+.	c #BBBBBB",
"@.	c #565B61",
"#.	c #293039",
"$.	c #222933",
"%.	c #7A7D81",
"&.	c #73777C",
"*.	c #96989B",
"=.	c #2B323B",
"-.	c #808387",
";.	c #767A7E",
">.	c #A7A8AA",
",.	c #BFBFBF",
"'.	c #6B6F74",
").	c #63676D",
"!.	c #40454D",
"~.	c #6D7176",
"{.	c #434850",
"].	c #B0B0B1",
"^.	c #2A313A",
"/.	c #B4B4B5",
"(.	c #40464E",
"_.	c #272E38",
":.	c #73767B",
"<.	c #85878B",
"[.	c #292F39",
"}.	c #8D8F92",
"|.	c #BEBEBE",
"1.	c #BBBCBC",
"2.	c #BDBDBD",
". . . . . . . . . . . . . . + + + + + + + + + + + + . . . . . . . . . . . . . . . . . . + + + + + + ",
"@ @ @ @ # # # # # # # # @ @ @ @ @ @ @ @ @ @ @ @ @ @ @ @ @ @ @ @ @ @ @ @ @ @ @ @ @ @ @ @ @ @ @ @ @ @ ",
"$ $ $ $ $ $ $ $ $ $ $ $ $ $ $ $ $ $ $ $ $ $ $ $ $ $ $ $ $ $ $ $ $ $ $ $ $ $ $ $ $ $ $ $ $ $ $ $ $ $ ",
"% % % % % % % % % % % % % % % % % % % % % % % % % % % % % % % % % % % % % % % % % % % % % % % % % % ",
"& & & & & & & & & * * * * * * * * & & & & & & & & & & & & & & & & & & & & & & & & & & & * * * * * * ",
"= = = = = = = = = = = = = = = = = = = = = = = = = = = = = = = = = = = = - - - - - - - - - = = = = = ",
"; ; ; ; ; ; ; ; ; ; ; ; ; ; ; ; ; ; ; ; ; ; ; ; ; ; ; ; ; ; ; ; ; ; ; ; ; ; ; ; ; ; ; ; ; ; ; ; ; ; ",
"> > > > > > > > > > > , ' > > > > ) ! ~ { ] > > ^ { / ( > > > _ { : < [ > } | 1 2 > > > > > > > 3 3 ",
"4 4 4 4 4 4 4 4 4 4 4 5 6 4 4 4 4 7 8 9 0 a b 4 c d e f 4 4 4 g 0 h i j k l m n 4 4 4 4 4 4 4 4 4 4 ",
"o o o o o o o o o o o p q o r r r s t u v w s x 9 y u z o o o A B o C D E F G r r r r r r r r r r r ",
"H H H H H H H H H H I { J H H H K L M { N O { P Q R { S H H H T U H V W a X H H H Y Y Y Y Y Y Y Y Y ",
"Y Y Y Y Y Y Y Y Y Y Z { v ` ` `  .L ..a +.Y @.#.$.` { U %.%.&.$.N *.=.-.;.E >.Y Y Y Y Y ,.,.,.,.,.,.",
",.,.,.,.,.,.,.,.Y Y '.{ { { { { ).!.~.{.,.,.].^.a /.(.{ { { _.:.<.[.}.Y |.T 1 1.,.,.,.,.,.|.|.|.|.|.",
"Y Y Y Y Y Y Y Y Y Y Y Y Y Y Y Y Y Y Y Y Y Y Y Y Y Y Y Y Y Y Y Y Y Y Y Y Y Y Y Y Y Y Y Y ,.,.,.,.,.,.",
"Y Y Y Y Y Y Y Y Y Y Y Y Y Y Y Y Y Y Y Y Y Y Y Y Y Y Y Y Y Y Y Y Y Y Y Y Y Y Y Y Y Y Y Y Y Y Y Y Y Y ",
",.,.,.,.,.,.,.,.,.,.,.,.,.,.,.,.,.,.,.|.|.|.|.|.|.|.,.,.,.,.,.,.,.,.,.,.,.,.,.,.,.,.,.,.,.,.,.,.,.,.",
"|.|.|.|.|.|.|.|.|.|.|.2.2.2.2.2.2.2.2.2.|.|.|.|.|.|.|.|.|.|.|.|.|.|.|.|.2.2.2.2.2.2.2.2.2.|.|.|.|.|.",
"Y Y Y Y Y Y Y Y ,.,.,.|.|.|.|.|.|.|.|.|.|.|.|.,.,.,.,.,.Y Y Y Y Y ,.,.,.|.|.|.|.|.|.|.|.|.,.,.,.Y Y ",
"H H H H Y Y Y Y Y Y Y ,.,.,.,.,.,.,.,.,.,.,.Y Y Y Y Y Y Y Y Y Y Y Y Y Y ,.,.,.,.,.,.Y Y Y Y Y H H H ",
"Y Y Y Y Y Y Y Y Y Y Y Y Y Y Y Y Y Y Y Y Y Y Y Y Y Y Y Y Y Y Y Y Y Y Y Y Y Y Y Y Y Y Y Y Y Y H H H H "};
