/* XPM */
static char * folder_16x16_xpm[] = {
"16 15 10 1",
" 	c None",
".	c #000000",
"+	c #3A3A3B",
"@	c #7C7B7B",
"#	c #919191",
"$	c #383838",
"%	c #5D5D5D",
"&	c #2A2A2A",
"*	c #1A191A",
"=	c #090A09",
"                ",
"                ",
" ......+        ",
".@@@@@@@######  ",
".@+++++@$$$$$$% ",
".@@@@@@@@@@@@.$.",
".@&&&&&&&&&&&&$.",
".@************$.",
".@============$.",
".@............$.",
".@............$.",
".@............$.",
"$$$$$$$$$$$$$$$.",
" .............. ",
"                "};
