/* XPM */
static char * folder_xpm[] = {
"16 15 7 1",
" 	c None",
".	c #5D5D5D",
"+	c #919191",
"@	c #DEDEDE",
"#	c #AFAFAF",
"$	c #383838",
"%	c #9E9E9E",
"                ",
"                ",
" ......+        ",
".@@@@@@@++++++  ",
".@#####@$$$$$$. ",
".@@@@@@@@@@@@+$.",
".@#######+++++$.",
".@+++++++%%%%+$.",
".@+%%%%%%%%%%+$.",
".@+%%%%%%%%%%+$.",
".@+%%%%%%%%%%+$.",
".@++++++++++++$.",
"$$$$$$$$$$$$$$$.",
" .............. ",
"                "};
