/* XPM */
static char * closeA_xpm[] = {
"20 44 13 1",
" 	c None",
".	c #8C8B8C",
"+	c #7C7B7B",
"@	c #000000",
"#	c #6C6B6B",
"$	c #5B5A5A",
"%	c #4A4A4A",
"&	c #3A3A3B",
"*	c #D6D6D6",
"=	c #2A2A2A",
"-	c #1A191A",
";	c #090A09",
">	c #9A9A9A",
"....................",
"++@@@@@@@@@@@@@@@@++",
"#@@@@@@@@@@@@@@@@@@#",
"$@@$$$$$$$$$$$$$$@@$",
"%@@%%%%%%%%%%%%%%@@%",
"&@@&&**&&&&&&**&&@@&",
"=@@==***====***==@@=",
"-@@---***--***---@@-",
";@@;;;;******;;;;@@;",
"@@@@@@@@****@@@@@@@@",
"@@@@@@@@****@@@@@@@@",
"@@@@@@@******@@@@@@@",
"@@@@@@***@@***@@@@@@",
"@;;@@***@@@@***@@;;@",
"@--@@**@@@@@@**@@--@",
"@==@@@@@@@@@@@@@@==@",
"@&&@@@@@@@@@@@@@@&&@",
"@%%%%%%%%%%%%%%%%%%@",
"@@$$$$$$$$$$$$$$$$@@",
"@@@@@@@@@@@@@@@@@@@@",
"@@@@@@@@@@@@@@@@@@@@",
"@@@@@@@@@@@@@@@@@@@@",
"....................",
"++@@@@@@@@@@@@@@@@++",
"#@@@@@@@@@@@@@@@@@@#",
"$@@$$$$$$$$$$$$$$@@$",
"%@@%%%%%%%%%%%%%%@@%",
"&@@&&>>&&&&&&>>&&@@&",
"=@@==>>>====>>>==@@=",
"-@@--->>>-->>>---@@-",
";@@;;;;>>>>>>;;;;@@;",
"@@@@@@@@>>>>@@@@@@@@",
"@@@@@@@@>>>>@@@@@@@@",
"@@@@@@@>>>>>>@@@@@@@",
"@@@@@@>>>@@>>>@@@@@@",
"@;;@@>>>@@@@>>>@@;;@",
"@--@@>>@@@@@@>>@@--@",
"@==@@@@@@@@@@@@@@==@",
"@&&@@@@@@@@@@@@@@&&@",
"@%%%%%%%%%%%%%%%%%%@",
"@@$$$$$$$$$$$$$$$$@@",
"@@@@@@@@@@@@@@@@@@@@",
"@@@@@@@@@@@@@@@@@@@@",
"@@@@@@@@@@@@@@@@@@@@"};
