/* XPM */
static char * menuButtonA_xpm[] = {
"22 44 28 1",
" 	c None",
".	c #8C8B8C",
"+	c #7C7B7B",
"@	c #6C6B6B",
"#	c #5B5A5A",
"$	c #4A4A4A",
"%	c #3A3A3B",
"&	c #2A2A2A",
"*	c #1A191A",
"=	c #090A09",
"-	c #000000",
";	c #9A9A9A",
">	c #969696",
",	c #858794",
"'	c #6C7189",
")	c #686C84",
"!	c #666B82",
"~	c #61657B",
"{	c #5E6378",
"]	c #5B5F73",
"^	c #595C6F",
"/	c #55596D",
"(	c #515569",
"_	c #4C5064",
":	c #484C60",
"<	c #45495D",
"[	c #42465C",
"}	c #3F4359",
"......................",
"++++++++++++++++++++++",
"@@@@@@@@@@@@@@@@@@@@@@",
"######################",
"$$$$$$$$$$$$$$$$$$$$$$",
"%%%%%%%%%%%%%%%%%%%%%%",
"&&&&&&&&&&&&&&&&&&&&&&",
"**********************",
"======================",
"----------------------",
"----------------------",
"----------------------",
"----------------------",
"----------------------",
"----------------------",
"----------------------",
"----------------------",
"----------------------",
"----------------------",
"----------------------",
"----------------------",
"----------------------",
";;;;;;;;;;;;;;;;;;;;;;",
";;;;;;;;;;;;;;;;;;;;;;",
";>>>>>>>>>>>>>>>>>>>>;",
";++++++++++++++++++++;",
";@@@@@@@@@@@@@@@@@@@@;",
",####################,",
"'$$$$$$$$$$$$$$$$$$$$'",
")%%%%%%%%%%%%%%%%%%%%)",
"!&&&&&&&&&&&&&&&&&&&&!",
"~********************~",
"{===================={",
"]--------------------]",
"^--------------------^",
"/--------------------/",
"(--------------------(",
"_--------------------_",
":--------------------:",
"<--------------------<",
"[--------------------[",
"}--------------------}",
"}--------------------}",
"}--------------------}"};
