/* XPM */
static char * titleAT_xpm[] = {
"1 22 11 1",
" 	c None",
".	c #8C8B8C",
"+	c #7C7B7B",
"@	c #6C6B6B",
"#	c #5B5A5A",
"$	c #4A4A4A",
"%	c #3A3A3B",
"&	c #2A2A2A",
"*	c #1A191A",
"=	c #090A09",
"-	c #000000",
".",
"+",
"@",
"#",
"$",
"%",
"&",
"*",
"=",
"-",
"-",
"-",
"-",
"-",
"-",
"-",
"-",
"-",
"-",
"-",
"-",
"-"};
