/* XPM */
static char * taskbarbg_xpm[] = {
"10 24 26 1",
" 	c None",
".	c #FEFEFE",
"+	c #FDFDFD",
"@	c #FCFCFC",
"#	c #FBFBFB",
"$	c #F8F8F8",
"%	c #F9F9F9",
"&	c #F3F3F3",
"*	c #EEEEEE",
"=	c #EFEFEF",
"-	c #EAEAEA",
";	c #E9E9E9",
">	c #E2E2E2",
",	c #E3E3E3",
"'	c #DCDCDC",
")	c #D8D8D8",
"!	c #D9D9D9",
"~	c #D2D2D2",
"{	c #CBCBCB",
"]	c #C7C7C7",
"^	c #C6C6C6",
"/	c #C1C1C1",
"(	c #C0C0C0",
"_	c #BFBFBF",
":	c #BEBEBE",
"<	c #BDBDBD",
"...++....+",
"@#@+++++@@",
"$$$$$$$$$%",
"&&&&&&&&&&",
"*******=**",
"--;------;",
">>>>>>>,,>",
"''''''''''",
")))))))))!",
"~~~~~~~~~~",
"{{{{{{{{{{",
"]]]^^]]^^^",
"////(///((",
"((//((//(_",
"__((__((_:",
"_(___(___<",
"((((((((((",
"((((((((((",
"____:_____",
"::<<:::<<:",
"__<<:__<<_",
"((___((__(",
"/(__(((_(/",
"(((((((((/"};
